{"title":"Welcome.To.The.Punch.2013.720p.WEBrip XVID AC3 BHRG","uid":8324265,"size":2628718129,"categoryP":"video","categoryS":"hd___movies","magnet":"?xt=urn:btih:1ec11d780cc907e601437ba65c0b63609c02fe8b&amp;dn=Welcome.To.The.Punch.2013.720p.WEBrip+XVID+AC3+BHRG&amp;tr=udp%3A%2F%2Ftracker.openbittorrent.com%3A80&amp;tr=udp%3A%2F%2Fopen.demonii.com%3A1337&amp;tr=udp%3A%2F%2Ftracker.coppersurfer.tk%3A6969&amp;tr=udp%3A%2F%2Fexodus.desync.com%3A6969","seeders":1,"leechers":0,"uploader":"Gh0stNet","files":3,"time":1364759245,"description":"\tFormat                                   : AVI\nFormat/Info                              : Audio Video Interleave\nFormat profile                           : OpenDML\nFile size                                : 2.43 GiB\nDuration                                 : 1h 39mn\nOverall bit rate                         : 3 490 Kbps\nWriting library                          : VirtualDub build 30091/release\n\nVideo\nID                                       : 0\nFormat                                   : MPEG-4 Visual\nFormat profile                           : Advanced Simple@L5\nFormat settings, BVOP                    : 2\nFormat settings, QPel                    : No\nFormat settings, GMC                     : No warppoints\nFormat settings, Matrix                  : Default (H.263)\nMuxing mode                              : Packed bitstream\nCodec ID                                 : XVID\nCodec ID/Hint                            : XviD\nDuration                                 : 1h 39mn\nBit rate                                 : 3 095 Kbps\nWidth                                    : 1 280 pixels\nHeight                                   : 544 pixels\nDisplay aspect ratio                     : 2.35:1\nFrame rate                               : 23.976 fps\nColor space                              : YUV\nChroma subsampling                       : 4:2:0\nBit depth                                : 8 bits\nScan type                                : Progressive\nCompression mode                         : Lossy\nBits/(Pixel*Frame)                       : 0.185\nStream size                              : 2.16 GiB (89%)\nWriting library                          : XviD 1.2.1 (UTC 2008-12-04)\n\nAudio\nID                                       : 1\nFormat                                   : AC-3\nFormat/Info                              : Audio Coding 3\nMode extension                           : CM (complete main)\nFormat settings, Endianness              : Big\nCodec ID                                 : 2000\nDuration                                 : 1h 39mn\nBit rate mode                            : Constant\nBit rate                                 : 384 Kbps\nChannel(s)                               : 6 channels\nChannel positions                        : Front: L C R, Side: L R, LFE\nSampling rate                            : 48.0 KHz\nBit depth                                : 16 bits\nCompression mode                         : Lossy\nStream size                              : 274 MiB (11%)\n\nScreens: &lt;a href=&quot;\nhttp://i.imgur.com/ITqM1DC.png&quot; rel=&quot;nofollow&quot; target=&quot;_NEW&quot;&gt;\nhttp://i.imgur.com/ITqM1DC.png&lt;/a&gt; &lt;a href=&quot;\nhttp://i.imgur.com/lP59feW.png&quot; rel=&quot;nofollow&quot; target=&quot;_NEW&quot;&gt;\nhttp://i.imgur.com/lP59feW.png&lt;/a&gt; &lt;a href=&quot;\nhttp://i.imgur.com/NVdHgyC.png&quot; rel=&quot;nofollow&quot; target=&quot;_NEW&quot;&gt;\nhttp://i.imgur.com/NVdHgyC.png&lt;/a&gt; &lt;a href=&quot;\nhttp://i.imgur.com/SqBlCAn.png&quot; rel=&quot;nofollow&quot; target=&quot;_NEW&quot;&gt;\nhttp://i.imgur.com/SqBlCAn.png&lt;/a&gt;","torrent":{"xt":"urn:btih:1ec11d780cc907e601437ba65c0b63609c02fe8b","amp;dn":"Welcome.To.The.Punch.2013.720p.WEBrip+XVID+AC3+BHRG","amp;tr":["udp%3A%2F%2Ftracker.openbittorrent.com%3A80","udp%3A%2F%2Fopen.demonii.com%3A1337","udp%3A%2F%2Ftracker.coppersurfer.tk%3A6969","udp%3A%2F%2Fexodus.desync.com%3A6969"],"infoHash":"1ec11d780cc907e601437ba65c0b63609c02fe8b","infoHashBuffer":{"type":"Buffer","data":[30,193,29,120,12,201,7,230,1,67,123,166,92,11,99,96,156,2,254,139]},"announce":[],"urlList":[]}}